<mxfile host="app.diagrams.net" modified="2024-06-05T19:45:51.688Z" agent="Mozilla/5.0 (Windows NT 10.0; Win64; x64; rv:126.0) Gecko/20100101 Firefox/126.0" etag="v24cM7VSdNuKFtdPgQKv" version="24.4.7" type="github">
  <diagram name="Page-1" id="x5yTo4wu3b0z9XvbvjdU">
    <mxGraphModel dx="2074" dy="1224" grid="0" gridSize="10" guides="1" tooltips="1" connect="1" arrows="1" fold="1" page="0" pageScale="1" pageWidth="850" pageHeight="1100" math="0" shadow="0">
      <root>
        <mxCell id="0" />
        <mxCell id="1" parent="0" />
        <mxCell id="3eZZdpAeBn6CK-p73UJC-1" value="VPC" style="points=[[0,0],[0.25,0],[0.5,0],[0.75,0],[1,0],[1,0.25],[1,0.5],[1,0.75],[1,1],[0.75,1],[0.5,1],[0.25,1],[0,1],[0,0.75],[0,0.5],[0,0.25]];outlineConnect=0;gradientColor=none;html=1;whiteSpace=wrap;fontSize=12;fontStyle=0;container=1;pointerEvents=0;collapsible=0;recursiveResize=0;shape=mxgraph.aws4.group;grIcon=mxgraph.aws4.group_vpc2;strokeColor=#8C4FFF;fillColor=none;verticalAlign=top;align=left;spacingLeft=30;fontColor=#AAB7B8;dashed=0;" vertex="1" parent="1">
          <mxGeometry x="-28" y="-171" width="1108" height="727" as="geometry" />
        </mxCell>
        <mxCell id="3eZZdpAeBn6CK-p73UJC-2" value="Region" style="points=[[0,0],[0.25,0],[0.5,0],[0.75,0],[1,0],[1,0.25],[1,0.5],[1,0.75],[1,1],[0.75,1],[0.5,1],[0.25,1],[0,1],[0,0.75],[0,0.5],[0,0.25]];outlineConnect=0;gradientColor=none;html=1;whiteSpace=wrap;fontSize=12;fontStyle=0;container=1;pointerEvents=0;collapsible=0;recursiveResize=0;shape=mxgraph.aws4.group;grIcon=mxgraph.aws4.group_region;strokeColor=#00A4A6;fillColor=none;verticalAlign=top;align=left;spacingLeft=30;fontColor=#147EBA;dashed=1;" vertex="1" parent="3eZZdpAeBn6CK-p73UJC-1">
          <mxGeometry x="13" y="63" width="425" height="596" as="geometry" />
        </mxCell>
        <mxCell id="3eZZdpAeBn6CK-p73UJC-7" value="Public subnet" style="points=[[0,0],[0.25,0],[0.5,0],[0.75,0],[1,0],[1,0.25],[1,0.5],[1,0.75],[1,1],[0.75,1],[0.5,1],[0.25,1],[0,1],[0,0.75],[0,0.5],[0,0.25]];outlineConnect=0;gradientColor=none;html=1;whiteSpace=wrap;fontSize=12;fontStyle=0;container=1;pointerEvents=0;collapsible=0;recursiveResize=0;shape=mxgraph.aws4.group;grIcon=mxgraph.aws4.group_security_group;grStroke=0;strokeColor=#7AA116;fillColor=#F2F6E8;verticalAlign=top;align=left;spacingLeft=30;fontColor=#248814;dashed=0;" vertex="1" parent="3eZZdpAeBn6CK-p73UJC-2">
          <mxGeometry x="9" y="29" width="399" height="282" as="geometry" />
        </mxCell>
        <mxCell id="3eZZdpAeBn6CK-p73UJC-9" value="Private subnet" style="points=[[0,0],[0.25,0],[0.5,0],[0.75,0],[1,0],[1,0.25],[1,0.5],[1,0.75],[1,1],[0.75,1],[0.5,1],[0.25,1],[0,1],[0,0.75],[0,0.5],[0,0.25]];outlineConnect=0;gradientColor=none;html=1;whiteSpace=wrap;fontSize=12;fontStyle=0;container=1;pointerEvents=0;collapsible=0;recursiveResize=0;shape=mxgraph.aws4.group;grIcon=mxgraph.aws4.group_security_group;grStroke=0;strokeColor=#00A4A6;fillColor=#E6F6F7;verticalAlign=top;align=left;spacingLeft=30;fontColor=#147EBA;dashed=0;" vertex="1" parent="3eZZdpAeBn6CK-p73UJC-2">
          <mxGeometry x="10" y="328" width="397" height="253" as="geometry" />
        </mxCell>
        <mxCell id="3eZZdpAeBn6CK-p73UJC-3" value="Region" style="points=[[0,0],[0.25,0],[0.5,0],[0.75,0],[1,0],[1,0.25],[1,0.5],[1,0.75],[1,1],[0.75,1],[0.5,1],[0.25,1],[0,1],[0,0.75],[0,0.5],[0,0.25]];outlineConnect=0;gradientColor=none;html=1;whiteSpace=wrap;fontSize=12;fontStyle=0;container=1;pointerEvents=0;collapsible=0;recursiveResize=0;shape=mxgraph.aws4.group;grIcon=mxgraph.aws4.group_region;strokeColor=#00A4A6;fillColor=none;verticalAlign=top;align=left;spacingLeft=30;fontColor=#147EBA;dashed=1;" vertex="1" parent="3eZZdpAeBn6CK-p73UJC-1">
          <mxGeometry x="657" y="61" width="409" height="600" as="geometry" />
        </mxCell>
        <mxCell id="3eZZdpAeBn6CK-p73UJC-6" value="Public subnet" style="points=[[0,0],[0.25,0],[0.5,0],[0.75,0],[1,0],[1,0.25],[1,0.5],[1,0.75],[1,1],[0.75,1],[0.5,1],[0.25,1],[0,1],[0,0.75],[0,0.5],[0,0.25]];outlineConnect=0;gradientColor=none;html=1;whiteSpace=wrap;fontSize=12;fontStyle=0;container=1;pointerEvents=0;collapsible=0;recursiveResize=0;shape=mxgraph.aws4.group;grIcon=mxgraph.aws4.group_security_group;grStroke=0;strokeColor=#7AA116;fillColor=#F2F6E8;verticalAlign=top;align=left;spacingLeft=30;fontColor=#248814;dashed=0;" vertex="1" parent="3eZZdpAeBn6CK-p73UJC-3">
          <mxGeometry x="7" y="29" width="393" height="284" as="geometry" />
        </mxCell>
        <mxCell id="3eZZdpAeBn6CK-p73UJC-10" value="Private subnet" style="points=[[0,0],[0.25,0],[0.5,0],[0.75,0],[1,0],[1,0.25],[1,0.5],[1,0.75],[1,1],[0.75,1],[0.5,1],[0.25,1],[0,1],[0,0.75],[0,0.5],[0,0.25]];outlineConnect=0;gradientColor=none;html=1;whiteSpace=wrap;fontSize=12;fontStyle=0;container=1;pointerEvents=0;collapsible=0;recursiveResize=0;shape=mxgraph.aws4.group;grIcon=mxgraph.aws4.group_security_group;grStroke=0;strokeColor=#00A4A6;fillColor=#E6F6F7;verticalAlign=top;align=left;spacingLeft=30;fontColor=#147EBA;dashed=0;" vertex="1" parent="3eZZdpAeBn6CK-p73UJC-3">
          <mxGeometry x="3" y="330" width="397" height="253" as="geometry" />
        </mxCell>
        <mxCell id="3eZZdpAeBn6CK-p73UJC-16" style="edgeStyle=none;curved=1;rounded=0;orthogonalLoop=1;jettySize=auto;html=1;fontSize=12;startSize=8;endSize=8;entryX=0;entryY=0;entryDx=0;entryDy=0;" edge="1" parent="3eZZdpAeBn6CK-p73UJC-1" source="3eZZdpAeBn6CK-p73UJC-14" target="3eZZdpAeBn6CK-p73UJC-6">
          <mxGeometry relative="1" as="geometry" />
        </mxCell>
        <mxCell id="3eZZdpAeBn6CK-p73UJC-17" style="edgeStyle=none;curved=1;rounded=0;orthogonalLoop=1;jettySize=auto;html=1;entryX=1;entryY=0;entryDx=0;entryDy=0;fontSize=12;startSize=8;endSize=8;" edge="1" parent="3eZZdpAeBn6CK-p73UJC-1" source="3eZZdpAeBn6CK-p73UJC-14" target="3eZZdpAeBn6CK-p73UJC-7">
          <mxGeometry relative="1" as="geometry" />
        </mxCell>
        <mxCell id="3eZZdpAeBn6CK-p73UJC-14" value="Route table" style="sketch=0;outlineConnect=0;fontColor=#232F3E;gradientColor=none;strokeColor=#232F3E;fillColor=#ffffff;dashed=0;verticalLabelPosition=bottom;verticalAlign=top;align=center;html=1;fontSize=12;fontStyle=0;aspect=fixed;shape=mxgraph.aws4.resourceIcon;resIcon=mxgraph.aws4.route_table;" vertex="1" parent="3eZZdpAeBn6CK-p73UJC-1">
          <mxGeometry x="510" y="65" width="60" height="60" as="geometry" />
        </mxCell>
        <mxCell id="3eZZdpAeBn6CK-p73UJC-12" value="Internet&#xa;gateway" style="sketch=0;outlineConnect=0;fontColor=#232F3E;gradientColor=none;strokeColor=#232F3E;fillColor=#ffffff;dashed=0;verticalLabelPosition=bottom;verticalAlign=top;align=center;html=1;fontSize=12;fontStyle=0;aspect=fixed;shape=mxgraph.aws4.resourceIcon;resIcon=mxgraph.aws4.internet_gateway;" vertex="1" parent="3eZZdpAeBn6CK-p73UJC-1">
          <mxGeometry x="510" y="-31" width="60" height="60" as="geometry" />
        </mxCell>
        <mxCell id="3eZZdpAeBn6CK-p73UJC-15" style="edgeStyle=none;curved=1;rounded=0;orthogonalLoop=1;jettySize=auto;html=1;fontSize=12;startSize=8;endSize=8;" edge="1" parent="3eZZdpAeBn6CK-p73UJC-1" source="3eZZdpAeBn6CK-p73UJC-12" target="3eZZdpAeBn6CK-p73UJC-14">
          <mxGeometry relative="1" as="geometry" />
        </mxCell>
        <mxCell id="3eZZdpAeBn6CK-p73UJC-4" style="edgeStyle=none;curved=1;rounded=0;orthogonalLoop=1;jettySize=auto;html=1;exitX=1;exitY=1;exitDx=0;exitDy=0;fontSize=12;startSize=8;endSize=8;" edge="1" parent="1" source="3eZZdpAeBn6CK-p73UJC-1" target="3eZZdpAeBn6CK-p73UJC-1">
          <mxGeometry relative="1" as="geometry" />
        </mxCell>
        <mxCell id="3eZZdpAeBn6CK-p73UJC-13" style="edgeStyle=none;curved=1;rounded=0;orthogonalLoop=1;jettySize=auto;html=1;fontSize=12;startSize=8;endSize=8;" edge="1" parent="1" source="3eZZdpAeBn6CK-p73UJC-11" target="3eZZdpAeBn6CK-p73UJC-12">
          <mxGeometry relative="1" as="geometry" />
        </mxCell>
        <mxCell id="3eZZdpAeBn6CK-p73UJC-11" value="Amazon Route 53" style="sketch=0;outlineConnect=0;fontColor=#232F3E;gradientColor=none;strokeColor=#ffffff;fillColor=#232F3E;dashed=0;verticalLabelPosition=middle;verticalAlign=bottom;align=center;html=1;whiteSpace=wrap;fontSize=10;fontStyle=1;spacing=3;shape=mxgraph.aws4.productIcon;prIcon=mxgraph.aws4.route_53;" vertex="1" parent="1">
          <mxGeometry x="472" y="-367" width="80" height="110" as="geometry" />
        </mxCell>
        <mxCell id="3eZZdpAeBn6CK-p73UJC-24" style="edgeStyle=none;curved=1;rounded=0;orthogonalLoop=1;jettySize=auto;html=1;fontSize=12;startSize=8;endSize=8;" edge="1" parent="1" source="3eZZdpAeBn6CK-p73UJC-18" target="3eZZdpAeBn6CK-p73UJC-11">
          <mxGeometry relative="1" as="geometry" />
        </mxCell>
        <mxCell id="3eZZdpAeBn6CK-p73UJC-18" value="SSL padlock" style="sketch=0;outlineConnect=0;fontColor=#232F3E;gradientColor=none;strokeColor=#232F3E;fillColor=#ffffff;dashed=0;verticalLabelPosition=bottom;verticalAlign=top;align=center;html=1;fontSize=12;fontStyle=0;aspect=fixed;shape=mxgraph.aws4.resourceIcon;resIcon=mxgraph.aws4.ssl_padlock;" vertex="1" parent="1">
          <mxGeometry x="306" y="-342" width="60" height="60" as="geometry" />
        </mxCell>
        <mxCell id="3eZZdpAeBn6CK-p73UJC-23" style="edgeStyle=none;curved=1;rounded=0;orthogonalLoop=1;jettySize=auto;html=1;fontSize=12;startSize=8;endSize=8;" edge="1" parent="1" source="3eZZdpAeBn6CK-p73UJC-20" target="3eZZdpAeBn6CK-p73UJC-18">
          <mxGeometry relative="1" as="geometry" />
        </mxCell>
        <mxCell id="3eZZdpAeBn6CK-p73UJC-20" value="" style="image;aspect=fixed;perimeter=ellipsePerimeter;html=1;align=center;shadow=0;dashed=0;spacingTop=3;image=img/lib/active_directory/internet_globe.svg;" vertex="1" parent="1">
          <mxGeometry x="113" y="-332" width="50" height="50" as="geometry" />
        </mxCell>
        <mxCell id="3eZZdpAeBn6CK-p73UJC-22" style="edgeStyle=none;curved=1;rounded=0;orthogonalLoop=1;jettySize=auto;html=1;fontSize=12;startSize=8;endSize=8;" edge="1" parent="1" source="3eZZdpAeBn6CK-p73UJC-21">
          <mxGeometry relative="1" as="geometry">
            <mxPoint x="105" y="-297" as="targetPoint" />
          </mxGeometry>
        </mxCell>
        <mxCell id="3eZZdpAeBn6CK-p73UJC-21" value="User" style="html=1;whiteSpace=wrap;strokeColor=none;fillColor=#0079D6;labelPosition=center;verticalLabelPosition=middle;verticalAlign=top;align=center;fontSize=12;outlineConnect=0;spacingTop=-6;fontColor=#FFFFFF;sketch=0;shape=mxgraph.sitemap.user;" vertex="1" parent="1">
          <mxGeometry x="-110" y="-332" width="120" height="70" as="geometry" />
        </mxCell>
        <mxCell id="3eZZdpAeBn6CK-p73UJC-25" value="" style="dashed=0;outlineConnect=0;html=1;align=center;labelPosition=center;verticalLabelPosition=bottom;verticalAlign=top;shape=mxgraph.weblogos.github" vertex="1" parent="1">
          <mxGeometry x="-169" y="246" width="75" height="75" as="geometry" />
        </mxCell>
      </root>
    </mxGraphModel>
  </diagram>
</mxfile>
